<svg xmlns="http://www.w3.org/2000/svg" viewBox="0 0 1024 1024" width="1024" height="1024" role="img" aria-label="kelpie">
  <rect width="1024" height="1024" fill="#17171c"/>
  <g transform="translate(0,1024) scale(0.1,-0.1)" fill="#f2f2f0" stroke="none">
    <path d="M4905 9007 c-42 -44 -156 -212 -246 -362 -27 -44 -82 -132 -123 -195
-99 -155 -208 -323 -280 -434 -77 -119 -166 -276 -227 -401 -26 -55 -71 -140
-99 -189 -60 -106 -122 -243 -143 -318 -22 -75 -47 -253 -47 -332 0 -37 5
-110 12 -162 l11 -94 -40 -48 c-45 -53 -132 -174 -238 -332 -187 -278 -368
-673 -486 -1065 -17 -55 -42 -136 -55 -180 -13 -44 -26 -87 -29 -95 -2 -8 -15
-53 -28 -100 -14 -47 -41 -148 -61 -225 -21 -77 -43 -158 -51 -180 -8 -22 -31
-103 -50 -180 -60 -230 -160 -519 -229 -660 -64 -130 -160 -280 -301 -470
-168 -226 -240 -345 -285 -475 -13 -36 -27 -69 -32 -74 -28 -33 10 -80 134
-164 25 -18 52 -38 60 -45 7 -7 57 -44 112 -82 382 -270 587 -395 881 -535
406 -195 877 -325 1360 -375 412 -43 790 -45 1245 -5 220 19 563 69 578 84 16
17 -3 373 -29 541 -14 88 -45 216 -64 258 -8 17 -28 68 -45 112 -17 44 -55
121 -85 170 -187 314 -193 330 -206 585 -20 393 -28 444 -117 755 -24 84 -23
252 1 323 25 70 101 152 169 183 51 23 62 24 268 24 231 -1 218 1 895 -122
109 -20 373 -22 445 -4 78 20 199 72 272 118 35 22 83 47 108 57 100 39 216
157 255 259 12 32 26 49 50 60 67 32 197 223 198 291 1 75 -60 135 -190 189
-49 21 -92 37 -95 37 -4 0 -35 13 -70 29 -35 16 -117 52 -183 79 -337 140
-741 338 -879 430 -176 117 -257 228 -308 422 -17 67 -41 131 -56 153 -36 53
-186 193 -312 291 -225 176 -381 267 -695 407 -99 44 -198 89 -220 100 l-40
20 53 -6 c88 -10 271 -62 386 -110 59 -26 109 -45 110 -43 2 2 10 48 19 103 9
55 26 150 37 210 12 61 41 250 66 420 92 628 113 941 68 1013 -37 57 -92 9
-246 -213 -30 -44 -127 -188 -215 -320 -421 -633 -408 -608 -400 -715 3 -41
14 -113 25 -160 36 -157 37 -151 -5 -205 l-38 -48 -7 73 c-5 42 -23 115 -45
174 l-37 101 -7 655 c-9 880 -25 1040 -106 1040 -18 0 -39 -14 -68 -43z m1345
-2982 c0 -69 18 -137 50 -185 16 -24 28 -45 27 -47 -5 -4 -184 55 -215 71 -16
8 -60 40 -98 71 -37 31 -75 60 -84 65 -8 5 -12 11 -9 15 10 10 240 53 287 54
l42 1 0 -45z"/>
  </g>
</svg>
